<svg xmlns="http://www.w3.org/2000/svg" viewBox="0 0 128 128"><defs><linearGradient id="icing" x2="0" y2="1"><stop stop-color="#ffd4e7"/><stop offset="1" stop-color="#e94486"/></linearGradient></defs><ellipse cx="64" cy="104" rx="52" ry="16" fill="#f7e8bc" stroke="#9b713d" stroke-width="3"/><path d="M19 63h90v30c0 21-90 21-90 0z" fill="url(#icing)" stroke="#96304f" stroke-width="3"/><ellipse cx="64" cy="63" rx="45" ry="18" fill="#fff8eb" stroke="#96304f" stroke-width="3"/><path d="M20 66q6 17 12 7q5-8 10 5q5 12 11-1q5-8 11 4q8 10 13-4q7-8 12 2q9 7 18-12" fill="none" stroke="#fff8eb" stroke-width="7"/><g stroke="#a44b78" stroke-width="1.5"><path d="M36 59V35h5v24zM61 62V29h5v33zM87 59V35h5v24z" fill="#ed82b4"/></g><g fill="#ffe077" stroke="#e6813c" stroke-width="1.5"><path d="M38 33c-8-5 1-15 1-15s8 11-1 15zM63 27c-8-5 1-15 1-15s8 11-1 15zM89 33c-8-5 1-15 1-15s8 11-1 15z"/></g><g fill="#a82152"><circle cx="34" cy="56" r="5"/><circle cx="91" cy="56" r="5"/><circle cx="49" cy="72" r="5"/><circle cx="79" cy="72" r="5"/></g></svg>